<?xml version="1.0" encoding="UTF-8"?>
<svg version="1.1" xmlns="http://www.w3.org/2000/svg" width="70" height="50">
<path d="M0 0 C0.99 0.33 1.98 0.66 3 1 C3.6875 3.0625 3.6875 3.0625 4 5 C5.65 4.67 7.3 4.34 9 4 C8.8125 6.375 8.8125 6.375 8 9 C5.4375 10.3125 5.4375 10.3125 3 11 C3 13.31 3 15.62 3 18 C3.78375 17.505 4.5675 17.01 5.375 16.5 C8 15 8 15 10 15 C10 12.36 10 9.72 10 7 C11.32 7 12.64 7 14 7 C14.495 8.98 14.495 8.98 15 11 C16.65 10.67 18.3 10.34 20 10 C20 11.32 20 12.64 20 14 C19.34 14.66 18.68 15.32 18 16 C18.99 16.66 19.98 17.32 21 18 C20.505 19.485 20.505 19.485 20 21 C18.96939453 20.87431641 18.96939453 20.87431641 17.91796875 20.74609375 C17.01691406 20.64425781 16.11585937 20.54242187 15.1875 20.4375 C14.29417969 20.33308594 13.40085938 20.22867187 12.48046875 20.12109375 C9.86624428 19.84341291 9.86624428 19.84341291 7 21 C8.13300317 23.98881131 8.13300317 23.98881131 10.625 25.8125 C14.18089699 26.09322871 17.47407819 25.52888827 21 25 C20.625 26.9375 20.625 26.9375 20 29 C19.01 29.495 19.01 29.495 18 30 C18.66 30.66 19.32 31.32 20 32 C20 33.32 20 34.64 20 36 C18.35 35.67 16.7 35.34 15 35 C14.67 36.32 14.34 37.64 14 39 C12.68 39 11.36 39 10 39 C9.95875 37.741875 9.9175 36.48375 9.875 35.1875 C9.69235511 32.99010474 9.69235511 32.99010474 9 31 C6.08158143 28.91367303 6.08158143 28.91367303 3 28 C3 30.31 3 32.62 3 35 C3.804375 35.226875 4.60875 35.45375 5.4375 35.6875 C6.283125 36.120625 7.12875 36.55375 8 37 C8.8125 39.625 8.8125 39.625 9 42 C7.35 41.67 5.7 41.34 4 41 C3.67 42.32 3.34 43.64 3 45 C1.68 45 0.36 45 -1 45 C-1.33 43.68 -1.66 42.36 -2 41 C-4.475 41.495 -4.475 41.495 -7 42 C-6.8125 39.625 -6.8125 39.625 -6 37 C-3.4375 35.6875 -3.4375 35.6875 -1 35 C-1 32.69 -1 30.38 -1 28 C-4.08158143 28.91367303 -4.08158143 28.91367303 -7 31 C-7.86518243 33.75878925 -7.90393194 36.06992426 -8 39 C-9.32 39 -10.64 39 -12 39 C-12.33 37.68 -12.66 36.36 -13 35 C-15.475 35.495 -15.475 35.495 -18 36 C-17.125 31.125 -17.125 31.125 -16 30 C-16.99 29.34 -17.98 28.68 -19 28 C-18.34 26.68 -17.68 25.36 -17 24 C-16.278125 24.350625 -15.55625 24.70125 -14.8125 25.0625 C-11.62394724 26.12535092 -10.13007923 26.1843543 -7 25 C-5.63979849 23.03241727 -5.63979849 23.03241727 -5 21 C-9.65537393 20.16203269 -13.37078475 19.9838308 -18 21 C-18 17 -18 17 -16 15 C-16.66 14.67 -17.32 14.34 -18 14 C-18 12.68 -18 11.36 -18 10 C-16.35 10.33 -14.7 10.66 -13 11 C-12.34 9.35 -11.68 7.7 -11 6 C-10.01 6.33 -9.02 6.66 -8 7 C-8 9.64 -8 12.28 -8 15 C-6.02 15.66 -4.04 16.32 -2 17 C-1.67 15.02 -1.34 13.04 -1 11 C-1.804375 10.773125 -2.60875 10.54625 -3.4375 10.3125 C-4.7059375 9.6628125 -4.7059375 9.6628125 -6 9 C-6.8125 6.375 -6.8125 6.375 -7 4 C-5.35 4.33 -3.7 4.66 -2 5 C-1.34 3.35 -0.68 1.7 0 0 Z " fill="#FDFDFD" transform="translate(34,5)"/>
<path d="M0 0 C1.65 0 3.3 0 5 0 C5.25394531 0.58007812 5.50789063 1.16015625 5.76953125 1.7578125 C7.3581466 5.36343386 8.96177043 8.92490621 10.75 12.4375 C12 15 12 15 12 17 C10.02 17 8.04 17 6 17 C3.67669016 11.39473306 1.53254356 5.87475032 0 0 Z " fill="#FDFDFD" transform="translate(53,0)"/>
<path d="M0 0 C1.65 0.33 3.3 0.66 5 1 C3.25192871 6.46737191 1.34205919 11.75824848 -1 17 C-2.98 17 -4.96 17 -7 17 C-5.68672877 12.75712371 -4.01756105 8.95105707 -2 5 C-1.31471955 3.34089996 -0.64108137 1.67667436 0 0 Z " fill="#FDFDFD" transform="translate(12,0)"/>
<path d="M0 0 C1.98 0 3.96 0 6 0 C6.67154933 1.28913487 7.33708859 2.58140204 8 3.875 C8.37125 4.59429688 8.7425 5.31359375 9.125 6.0546875 C10 8 10 8 10 10 C7.69 10.33 5.38 10.66 3 11 C2.49384702 9.73160474 1.99530901 8.46016898 1.5 7.1875 C1.2215625 6.47980469 0.943125 5.77210937 0.65625 5.04296875 C0 3 0 3 0 0 Z " fill="#FDFDFD" transform="translate(60,18)"/>
<path d="M0 0 C1.4540625 0.0309375 1.4540625 0.0309375 2.9375 0.0625 C2.26579194 3.8688457 1.21003436 7.41456816 -0.0625 11.0625 C-2.3725 10.7325 -4.6825 10.4025 -7.0625 10.0625 C-6.58699439 8.58215236 -6.10698784 7.10324979 -5.625 5.625 C-5.35816406 4.80128906 -5.09132813 3.97757813 -4.81640625 3.12890625 C-3.64372032 -0.0853469 -3.61643303 0.07380476 0 0 Z " fill="#FDFDFD" transform="translate(7.0625,17.9375)"/>
</svg>
