<?xml version="1.0" encoding="UTF-8"?>
<svg version="1.1" xmlns="http://www.w3.org/2000/svg" width="60" height="57">
<path d="M0 0 C8.17582418 2.17582418 8.17582418 2.17582418 10 4 C10.36849874 10.21214741 9.38289339 15.39871113 7.69921875 21.35546875 C7.46217728 22.2201326 7.2251358 23.08479645 6.98091125 23.97566223 C6.48057308 25.79137601 5.97521762 27.605714 5.46508789 29.41870117 C4.6878118 32.18638977 3.92972751 34.95882804 3.17382812 37.73242188 C2.68342225 39.50291771 2.19192306 41.27311116 1.69921875 43.04296875 C1.47409103 43.86701706 1.24896332 44.69106537 1.01701355 45.54008484 C-1.52437099 54.48835732 -1.52437099 54.48835732 -4 57 C-7.28331185 57.71603554 -10.5002257 57.62809932 -13.84765625 57.55859375 C-14.81529404 57.55626236 -15.78293182 57.55393097 -16.77989197 57.55152893 C-18.82511207 57.54178542 -20.87030491 57.51998449 -22.9152832 57.48706055 C-26.05395218 57.43763461 -29.19105511 57.42558043 -32.33007812 57.41992188 C-34.31512092 57.40583703 -36.30015006 57.38963303 -38.28515625 57.37109375 C-39.2278688 57.36573105 -40.17058136 57.36036835 -41.14186096 57.35484314 C-42.01293991 57.33885574 -42.88401886 57.32286835 -43.78149414 57.30639648 C-44.93374229 57.29043678 -44.93374229 57.29043678 -46.10926819 57.27415466 C-48 57 -48 57 -50 55 C-50.19852102 52.29077199 -50.27839477 49.70696821 -50.25 47 C-50.25773437 46.26265625 -50.26546875 45.5253125 -50.2734375 44.765625 C-50.2533196 39.2533196 -50.2533196 39.2533196 -48 37 C-45.01904297 36.77294922 -45.01904297 36.77294922 -41.2421875 36.8046875 C-40.24761032 36.80893234 -40.24761032 36.80893234 -39.23294067 36.81326294 C-37.11344417 36.82446565 -34.99436896 36.84956949 -32.875 36.875 C-31.43880818 36.88502972 -30.00260975 36.89415559 -28.56640625 36.90234375 C-25.04413372 36.924405 -21.52210797 36.95893506 -18 37 C-17.90460937 35.95457031 -17.80921875 34.90914062 -17.7109375 33.83203125 C-16.93446601 27.64886616 -15.24107803 21.69436855 -13.625 15.6875 C-13.32078125 14.50865234 -13.0165625 13.32980469 -12.703125 12.11523438 C-12.40148438 10.98794922 -12.09984375 9.86066406 -11.7890625 8.69921875 C-11.51787598 7.67658936 -11.24668945 6.65395996 -10.96728516 5.6003418 C-8.79167698 -0.24832117 -5.98975735 -0.57965394 0 0 Z M-5 5 C-6.2884489 9.48215734 -7.56999017 13.9662107 -8.84521484 18.45214844 C-9.27985118 19.97742702 -9.71635884 21.50217367 -10.15478516 23.02636719 C-10.78522471 25.21932473 -11.40887437 27.41411721 -12.03125 29.609375 C-12.22811401 30.2886908 -12.42497803 30.96800659 -12.62780762 31.66790771 C-13.5538925 34.95910116 -14 37.54172026 -14 41 C-14.93384521 40.99476318 -15.86769043 40.98952637 -16.82983398 40.98413086 C-20.28312796 40.9671238 -23.73637767 40.95456698 -27.18969727 40.94506836 C-28.68644918 40.94002879 -30.18319616 40.93319713 -31.67993164 40.92456055 C-33.82699807 40.91247841 -35.97399962 40.90676809 -38.12109375 40.90234375 C-39.4145874 40.89710693 -40.70808105 40.89187012 -42.04077148 40.88647461 C-44.88652404 40.66003068 -44.88652404 40.66003068 -46 42 C-46 45.3 -46 48.6 -46 52 C-32.8 52 -19.6 52 -6 52 C-4.42876668 46.23541021 -2.86062228 40.47016195 -1.30029297 34.70263672 C-0.76857232 32.74088276 -0.23505556 30.7796147 0.30029297 28.81884766 C1.06951135 26.00028309 1.83225191 23.18003377 2.59375 20.359375 C2.83436157 19.48319519 3.07497314 18.60701538 3.32287598 17.70428467 C3.54310425 16.88373596 3.76333252 16.06318726 3.99023438 15.21777344 C4.18564819 14.49829529 4.38106201 13.77881714 4.58239746 13.03753662 C5.13385397 10.69355776 5.13385397 10.69355776 5 7 C1.45648927 5.38010938 -1.12719419 4.89585732 -5 5 Z " fill="#FDFDFD" transform="translate(50,0)"/>
</svg>
