<?xml version="1.0" encoding="UTF-8"?>
<svg version="1.1" xmlns="http://www.w3.org/2000/svg" width="60" height="51">
<path d="M0 0 C1.26714844 -0.04060547 2.53429688 -0.08121094 3.83984375 -0.12304688 C12.8935381 -0.15636752 12.8935381 -0.15636752 16.27441406 2.16040039 C18.32451961 4.49524282 19.70460743 6.88493237 21.14013672 9.62548828 C22.95439353 13.07860276 23.71528254 14.50627882 27.375 16.125 C28.73625 16.4034375 28.73625 16.4034375 30.125 16.6875 C30.125 18.6675 30.125 20.6475 30.125 22.6875 C29.135 22.6875 28.145 22.6875 27.125 22.6875 C27.14820313 23.73550781 27.17140625 24.78351562 27.1953125 25.86328125 C27.21407303 27.24218037 27.23227293 28.6210872 27.25 30 C27.26675781 30.69029297 27.28351562 31.38058594 27.30078125 32.09179688 C27.33717794 35.85885396 27.26878864 37.47181704 25.125 40.6875 C24.66898739 43.19646686 24.66898739 43.19646686 24.5 45.875 C24.314375 48.2571875 24.314375 48.2571875 24.125 50.6875 C20.825 50.6875 17.525 50.6875 14.125 50.6875 C14.125 48.0475 14.125 45.4075 14.125 42.6875 C4.885 42.6875 -4.355 42.6875 -13.875 42.6875 C-13.875 45.3275 -13.875 47.9675 -13.875 50.6875 C-17.175 50.6875 -20.475 50.6875 -23.875 50.6875 C-24.0703125 48.18098958 -24.265625 45.67447917 -24.4609375 43.16796875 C-24.74145036 40.44351501 -24.74145036 40.44351501 -26.875 37.6875 C-27.01721065 35.08504502 -27.06302932 32.59632316 -27 30 C-26.99097656 29.29810547 -26.98195313 28.59621094 -26.97265625 27.87304688 C-26.94913704 26.14438475 -26.91326713 24.41589855 -26.875 22.6875 C-27.865 22.6875 -28.855 22.6875 -29.875 22.6875 C-29.875 20.7075 -29.875 18.7275 -29.875 16.6875 C-28.575625 16.501875 -28.575625 16.501875 -27.25 16.3125 C-22.80368088 14.17167968 -21.62246122 11.46376841 -19.3671875 7.1953125 C-14.51360564 -0.9617544 -8.78557712 -0.01332494 0 0 Z M-14.56640625 8.97265625 C-16.05155471 11.81922786 -16.05155471 11.81922786 -16.875 15.6875 C-5.655 15.6875 5.565 15.6875 17.125 15.6875 C15.25067979 10.6906667 15.25067979 10.6906667 12.125 6.6875 C8.19787269 5.84285258 4.1947933 6.0851381 0.1875 6.125 C-0.91013672 6.10115234 -2.00777344 6.07730469 -3.13867188 6.05273438 C-9.38012147 5.93259583 -9.38012147 5.93259583 -14.56640625 8.97265625 Z " fill="#FDFDFD" transform="translate(29.875,-0.6875)"/>
</svg>
