<?xml version="1.0" encoding="UTF-8"?>
<svg version="1.1" xmlns="http://www.w3.org/2000/svg" width="57" height="58">
<path d="M0 0 C1.65 0 3.3 0 5 0 C5.495 2.97 5.495 2.97 6 6 C8.99332739 5.0022242 9.94766315 4.2477975 12 2 C12.99 2.33 13.98 2.66 15 3 C15 5.64 15 8.28 15 11 C15.598125 10.67 16.19625 10.34 16.8125 10 C19 9 19 9 22 9 C22.66 9.99 23.32 10.98 24 12 C22.02 14.97 22.02 14.97 20 18 C22.31 18 24.62 18 27 18 C27.8125 19.6875 27.8125 19.6875 28 22 C25.5625 24.75 25.5625 24.75 23 27 C24.98 27.33 26.96 27.66 29 28 C29 29.65 29 31.3 29 33 C25.535 33.495 25.535 33.495 22 34 C22.845625 34.721875 23.69125 35.44375 24.5625 36.1875 C27 39 27 39 26.8125 41.8125 C26.544375 42.534375 26.27625 43.25625 26 44 C23.69 43.34 21.38 42.68 19 42 C19.37125 43.093125 19.7425 44.18625 20.125 45.3125 C20.41375 46.529375 20.7025 47.74625 21 49 C20.34 49.99 19.68 50.98 19 52 C14.25 50.125 14.25 50.125 12 49 C12 50.98 12 52.96 12 55 C10.35 55.66 8.7 56.32 7 57 C6.319375 55.7934375 6.319375 55.7934375 5.625 54.5625 C4.25274335 51.91143428 4.25274335 51.91143428 2 51 C1.67 53.31 1.34 55.62 1 58 C-0.65 57.67 -2.3 57.34 -4 57 C-4.495 54.525 -4.495 54.525 -5 52 C-8.11785113 52.64644661 -8.11785113 52.64644661 -9 55 C-10.65 54.67 -12.3 54.34 -14 54 C-13.67 51.69 -13.34 49.38 -13 47 C-13.7425 47.350625 -14.485 47.70125 -15.25 48.0625 C-18.13229609 49.04510094 -19.24305242 49.18154896 -22 48 C-22.33 47.34 -22.66 46.68 -23 46 C-22.2575 45.071875 -22.2575 45.071875 -21.5 44.125 C-19.80777227 42.16119096 -19.80777227 42.16119096 -20 40 C-21.98 40 -23.96 40 -26 40 C-26.66 38.68 -27.32 37.36 -28 36 C-24.25 33 -24.25 33 -22 33 C-23.39195915 30.2160817 -25.15575779 30.02101003 -28 29 C-28 27.35 -28 25.7 -28 24 C-27.030625 23.87625 -26.06125 23.7525 -25.0625 23.625 C-24.051875 23.41875 -23.04125 23.2125 -22 23 C-21.67 22.34 -21.34 21.68 -21 21 C-23.475 20.01 -23.475 20.01 -26 19 C-25.67 17.35 -25.34 15.7 -25 14 C-22.69 14 -20.38 14 -18 14 C-18.66 12.02 -19.32 10.04 -20 8 C-18.375 6.8125 -18.375 6.8125 -16 6 C-12.75 7.375 -12.75 7.375 -10 9 C-10.33 6.69 -10.66 4.38 -11 2 C-9.35 1.67 -7.7 1.34 -6 1 C-5.34 2.65 -4.68 4.3 -4 6 C-2.68 6 -1.36 6 0 6 C0 4.02 0 2.04 0 0 Z M-12.375 18.5625 C-16.21588185 23.33792797 -16.5519633 26.94884679 -16 33 C-14.29350617 37.92987106 -11.51128252 41.37168758 -7 44 C-2.50509472 45.83125771 1.49479068 46.50710077 6.1875 45.0625 C10.53281369 43.12449009 13.41471272 39.93607753 16 36 C17.64480616 31.06558151 17.5902043 26.73589501 15.9375 21.875 C13.00806413 17.52809516 9.91472975 13.92694586 4.7890625 12.296875 C-2.37360072 11.17236132 -7.56922901 13.09465129 -12.375 18.5625 Z " fill="#FFFFFF" transform="translate(28,0)"/>
<path d="M0 0 C0.66 0.66 1.32 1.32 2 2 C1.625 5.625 1.625 5.625 1 9 C-5.42548263 10.33359073 -5.42548263 10.33359073 -7.9375 8.875 C-9.37604008 6.33639987 -9.50262362 4.87213496 -9 2 C-6.07557433 -1.24936186 -4.04996841 -1.38551551 0 0 Z " fill="#FFFFFF" transform="translate(32,24)"/>
</svg>
