<?xml version="1.0" encoding="UTF-8"?>
<svg version="1.1" xmlns="http://www.w3.org/2000/svg" width="37" height="26">
<path d="M0 0 C0.72489624 -0.00095673 1.44979248 -0.00191345 2.19665527 -0.00289917 C3.72989997 -0.00357993 5.26314755 -0.00173286 6.79638672 0.00244141 C9.14687558 0.00779116 11.49717335 0.00249297 13.84765625 -0.00390625 C15.33593792 -0.00324545 16.82421948 -0.00196425 18.3125 0 C19.01773804 -0.00202423 19.72297607 -0.00404846 20.44958496 -0.00613403 C25.42632514 0.01785007 25.42632514 0.01785007 27.65625 1.1328125 C27.32625 2.1228125 26.99625 3.1128125 26.65625 4.1328125 C15.10625 4.1328125 3.55625 4.1328125 -8.34375 4.1328125 C-8.67375 3.1428125 -9.00375 2.1528125 -9.34375 1.1328125 C-6.35092264 -0.36360118 -3.28096394 -0.00941729 0 0 Z " fill="#000000" transform="translate(9.34375,10.8671875)"/>
<path d="M0 0 C11.88 0 23.76 0 36 0 C36 0.99 36 1.98 36 3 C24.12 3 12.24 3 0 3 C0 2.01 0 1.02 0 0 Z " fill="#000000" transform="translate(1,23)"/>
<path d="M0 0 C11.55 0 23.1 0 35 0 C35.495 1.485 35.495 1.485 36 3 C24.12 3 12.24 3 0 3 C0 2.01 0 1.02 0 0 Z " fill="#000000" transform="translate(1,0)"/>
</svg>
