<?xml version="1.0" encoding="UTF-8"?>
<svg version="1.1" xmlns="http://www.w3.org/2000/svg" width="38" height="58">
<path d="M0 0 C2.43155552 3.08495295 4.37330119 6.28972051 6.28515625 9.71875 C6.89810547 10.81574219 7.51105469 11.91273437 8.14257812 13.04296875 C8.77615234 14.18378906 9.40972656 15.32460937 10.0625 16.5 C10.69994141 17.64082031 11.33738281 18.78164063 11.99414062 19.95703125 C20.08223915 34.46276749 20.08223915 34.46276749 19 44 C17.22997171 49.40059768 13.53100559 52.82829609 9 56 C3.72651189 58.63674405 -1.36789913 58.25872401 -7 57 C-12.50340735 54.19637739 -17.01703172 49.94890483 -19 44 C-21.13995233 33.13873254 -15.31175368 24.94234627 -10 16 C-9.57315918 15.26974609 -9.14631836 14.53949219 -8.70654297 13.78710938 C-1.55865488 1.55865488 -1.55865488 1.55865488 0 0 Z M-1 9 C-3.15012454 12.76840198 -5.29435886 16.54012276 -7.4375 20.3125 C-8.35499023 21.9202832 -8.35499023 21.9202832 -9.29101562 23.56054688 C-9.87431641 24.58857422 -10.45761719 25.61660156 -11.05859375 26.67578125 C-11.59798584 27.62364502 -12.13737793 28.57150879 -12.69311523 29.5480957 C-14.98762512 33.85292715 -15.32846372 37.1551602 -15 42 C-13.15493318 47.12518561 -10.53495989 50.00521517 -6 53 C-1.52974217 54.59189306 1.94896987 54.33364755 6.25 52.375 C10.70913385 49.84319316 13.36518352 46.90444943 15 42 C16.70017677 30.58452737 6.57126576 18.55882145 1 9 C0.34 9 -0.32 9 -1 9 Z " fill="#FFFFFF" transform="translate(19,0)"/>
</svg>
