<?xml version="1.0" encoding="UTF-8"?>
<svg version="1.1" xmlns="http://www.w3.org/2000/svg" width="80" height="37">
<path d="M0 0 C1.07193604 0.00588135 2.14387207 0.0117627 3.24829102 0.01782227 C8.08938673 0.25789193 11.98880776 0.45838857 15.59765625 3.91796875 C17.34473746 6.02870167 18.69321736 8.19171479 20.16015625 10.52734375 C21.85103264 13.40960441 21.85103264 13.40960441 24.55859375 14.12890625 C26.10645947 14.20568039 27.65741803 14.24069143 29.20703125 14.21875 C31.125 14.25 31.125 14.25 33.6875 15.75 C35.86198073 19.53170561 35.75993625 22.9935755 35.125 27.25 C34 29.6875 34 29.6875 32.125 31.25 C31.17625 31.559375 30.2275 31.86875 29.25 32.1875 C25.93238072 33.04612419 25.93238072 33.04612419 23.625 35.875 C21.125 38.25 21.125 38.25 18.125 38.8125 C14.46793434 38.12680019 12.73693986 36.86193986 10.125 34.25 C10.125 33.59 10.125 32.93 10.125 32.25 C5.5407377 32.30178948 0.95837172 32.39685171 -3.625 32.5 C-4.92695312 32.51417969 -6.22890625 32.52835938 -7.5703125 32.54296875 C-8.82070313 32.57519531 -10.07109375 32.60742188 -11.359375 32.640625 C-12.51147461 32.66157227 -13.66357422 32.68251953 -14.85058594 32.70410156 C-18.48095801 33.35937376 -19.46648712 34.5578265 -21.875 37.25 C-25.86957488 38.33942951 -27.95198487 38.67137647 -31.75 36.9375 C-33.875 35.25 -33.875 35.25 -34.875 33.25 C-36.87180259 32.41178177 -38.90144999 31.78424909 -40.96484375 31.12890625 C-42.875 30.25 -42.875 30.25 -44.875 27.25 C-45.52809007 23.12641966 -45.51740313 19.473625 -43.5625 15.75 C-39.27418356 13.35652105 -34.71473906 13.41688755 -29.875 13.25 C-34.9993422 8.73897902 -34.9993422 8.73897902 -41.375 6.875 C-42.2 6.99875 -43.025 7.1225 -43.875 7.25 C-43.875 5.93 -43.875 4.61 -43.875 3.25 C-40.7465305 1.68576525 -38.33217435 1.93276189 -34.875 2.25 C-31.78515625 4.21875 -31.78515625 4.21875 -28.9375 6.75 C-27.97972656 7.5853125 -27.02195312 8.420625 -26.03515625 9.28125 C-25.32230469 9.9309375 -24.60945313 10.580625 -23.875 11.25 C-20.4479435 9.81227133 -18.72368482 8.03607964 -16.3671875 5.203125 C-11.41211752 0.14487216 -6.85847237 -0.13683933 0 0 Z " fill="#FDFDFD" transform="translate(44.875,-1.25)"/>
</svg>
